<svg width="28" height="23" viewBox="0 0 28 23" fill="none" xmlns="http://www.w3.org/2000/svg">
<path d="M1.28 23C1.088 23 0.949333 22.936 0.864 22.808C0.778667 22.68 0.768 22.5307 0.832 22.36L8.96 1.016C9.04533 0.738665 9.248 0.599998 9.568 0.599998H12.96C13.152 0.599998 13.2907 0.663999 13.376 0.792C13.4613 0.919999 13.472 1.06933 13.408 1.24L5.28 22.584C5.19467 22.8613 4.992 23 4.672 23H1.28ZM15.4988 23C15.3068 23 15.1681 22.936 15.0828 22.808C14.9974 22.68 14.9868 22.5307 15.0508 22.36L23.1788 1.016C23.2641 0.738665 23.4668 0.599998 23.7868 0.599998H27.1788C27.3708 0.599998 27.5094 0.663999 27.5948 0.792C27.6801 0.919999 27.6908 1.06933 27.6268 1.24L19.4988 22.584C19.4134 22.8613 19.2108 23 18.8908 23H15.4988Z" fill="#03FFA5"/>
</svg>
